<svg width="72" height="36" viewBox="0 0 72 36" fill="none" xmlns="http://www.w3.org/2000/svg">
    <path d="M29.4241 12.432C24.6241 12.432 21.1201 15.624 21.1201 20.016C21.1201 24.408 24.6001 27.504 29.4241 27.504C34.2481 27.504 37.7281 24.36 37.7281 20.016C37.7281 15.672 34.2241 12.432 29.4241 12.432ZM33.9361 19.992C33.9361 22.344 32.0881 23.976 29.4241 23.976C26.7601 23.976 24.9121 22.32 24.9121 19.992C24.9121 17.664 26.7601 15.936 29.4241 15.936C32.0881 15.936 33.9361 17.616 33.9361 19.992Z" fill="#16484C"/>
    <path d="M68.4961 12.672H64.7041V27.288H68.4961V12.672Z" fill="#16484C"/>
    <path d="M56.4478 12.4319C55.5118 12.4079 54.5998 12.5759 53.7598 12.9359C52.9198 13.2959 52.1518 13.8479 51.5278 14.5439C50.5678 13.1279 49.0558 12.4319 46.9918 12.4319C45.6718 12.4079 44.3998 12.8639 43.3918 13.7039L43.3198 12.6959H39.8398V27.2879H43.6318V19.2239C43.6318 17.0399 44.4958 15.9359 46.1998 15.9359C47.9038 15.9359 48.8878 17.0399 48.8878 19.2239V27.2879H52.6798V19.2239C52.6798 17.2319 53.7838 15.9359 55.4878 15.9359C57.1918 15.9359 58.1998 15.9359 58.1998 19.2239V27.2879H61.9918V19.1279C61.9918 14.8559 59.9758 12.4319 56.4478 12.4319Z" fill="#16484C"/>
    <path d="M66.5761 10.8001C66.9121 10.8001 67.2241 10.7521 67.5361 10.6321C67.8481 10.5121 68.1121 10.3441 68.3521 10.1041C68.5921 9.88807 68.7841 9.60007 68.9041 9.31207C69.0241 9.02407 69.0961 8.68807 69.0961 8.37607C69.0481 7.72807 68.7841 7.12807 68.3041 6.67207C67.8241 6.21607 67.2001 5.97607 66.5521 5.97607C65.9041 5.97607 65.2801 6.21607 64.8001 6.67207C64.3201 7.12807 64.0321 7.72807 64.0081 8.37607C64.0081 8.71207 64.0801 9.02407 64.2241 9.33607C64.3441 9.64807 64.5361 9.91207 64.7761 10.1281C65.0161 10.3441 65.3041 10.5361 65.5921 10.6561C65.9041 10.7761 66.2161 10.8241 66.5521 10.8241L66.5761 10.8001Z" fill="#16484C"/>
    <path fill-rule="evenodd" clip-rule="evenodd" d="M6.312 14.28C4.872 13.368 3.12 13.968 1.44 14.688L0 11.304C0.024 11.304 0.0720004 11.28 0.0960004 11.256C1.68 10.584 5.784 8.83198 9.192 11.856C9.312 11.952 9.408 12.048 9.528 12.168C10.752 11.712 12.12 11.568 13.608 11.88C16.32 12.432 18.24 14.52 19.032 17.328C19.8 20.088 19.488 23.592 17.928 27.48L14.52 26.112C15.864 22.728 15.984 20.088 15.48 18.312C15 16.584 13.992 15.72 12.864 15.48C12.456 15.408 12.072 15.384 11.664 15.432C12.48 17.424 12.72 19.608 12.504 21.48C12.336 23.064 11.808 24.696 10.824 25.872C9.744 27.144 8.112 27.864 6.216 27.408C3.984 26.88 2.976 25.08 2.736 23.28C2.52 21.552 2.976 19.608 3.768 17.88C4.344 16.632 5.208 15.336 6.312 14.256V14.28ZM8.448 17.352C7.944 17.952 7.488 18.648 7.104 19.464C6.504 20.76 6.288 22.008 6.384 22.848C6.48 23.616 6.744 23.784 7.032 23.856C7.44 23.952 7.704 23.856 7.992 23.52C8.352 23.088 8.712 22.272 8.832 21.096C8.976 19.872 8.832 18.552 8.424 17.352H8.448Z" fill="#16484C"/>
</svg>
